<svg width="404" height="360" viewBox="0 0 404 360" fill="none" xmlns="http://www.w3.org/2000/svg">
<path d="M40.835 0.65741H0.553925V40.5729H40.835V0.65741Z" fill="#EA2F61" style="fill:#EA2F61;fill:color(display-p3 0.9163 0.1861 0.3794);fill-opacity:1;"/>
<path d="M81.1161 40.5729L40.835 40.5729L40.8351 80.4885H81.1161V40.5729Z" fill="#EA2F61" style="fill:#EA2F61;fill:color(display-p3 0.9163 0.1861 0.3794);fill-opacity:1;"/>
<path d="M121.397 80.4885L81.1161 80.4885L81.1161 120.404H121.397V80.4885Z" fill="#EA2F61" style="fill:#EA2F61;fill:color(display-p3 0.9163 0.1861 0.3794);fill-opacity:1;"/>
<path d="M161.678 120.404L121.397 120.404L121.397 160.319H161.678V120.404Z" fill="#EA2F61" style="fill:#EA2F61;fill:color(display-p3 0.9163 0.1861 0.3794);fill-opacity:1;"/>
<path d="M201.959 160.32L161.678 160.319L161.678 200.235H201.959V160.32Z" fill="#EA2F61" style="fill:#EA2F61;fill:color(display-p3 0.9163 0.1861 0.3794);fill-opacity:1;"/>
<path d="M161.678 200.235L121.397 200.235V239.827H161.678L161.678 200.235Z" fill="#EA2F61" style="fill:#EA2F61;fill:color(display-p3 0.9163 0.1861 0.3794);fill-opacity:1;"/>
<path d="M121.397 240.151H81.1161V280.066H121.397V240.151Z" fill="#EA2F61" style="fill:#EA2F61;fill:color(display-p3 0.9163 0.1861 0.3794);fill-opacity:1;"/>
<path d="M81.1161 280.066L40.8351 280.066V319.982H81.1161L81.1161 280.066Z" fill="#EA2F61" style="fill:#EA2F61;fill:color(display-p3 0.9163 0.1861 0.3794);fill-opacity:1;"/>
<path d="M40.8351 319.982H0.553345V357.408H40.8344L40.8351 319.982Z" fill="#EA2F61" style="fill:#EA2F61;fill:color(display-p3 0.9163 0.1861 0.3794);fill-opacity:1;"/>
<path d="M403.364 319.982H201.959V359.897H403.364V319.982Z" fill="#EA2F61" style="fill:#EA2F61;fill:color(display-p3 0.9163 0.1861 0.3794);fill-opacity:1;"/>
</svg>
