<svg width="1022" height="839" viewBox="0 0 1022 839" fill="none" xmlns="http://www.w3.org/2000/svg">
<path d="M1021.76 0.825241H0.242676V40.5922H1021.76V0.825241Z" fill="black" style="fill:black;fill-opacity:1;"/>
<path d="M1021.76 80.3592H0.242676V120.126H1021.76V80.3592Z" fill="black" style="fill:black;fill-opacity:1;"/>
<path d="M1021.76 159.893H0.242676V199.66H1021.76V159.893Z" fill="black" style="fill:black;fill-opacity:1;"/>
<path d="M1021.76 239.427H0.242676V280.437H1021.76V239.427Z" fill="black" style="fill:black;fill-opacity:1;"/>
<path d="M1021.76 320.204H0.242676V359.971H1021.76V320.204Z" fill="black" style="fill:black;fill-opacity:1;"/>
<path d="M1021.76 399.738H0.242676V439.505H1021.76V399.738Z" fill="black" style="fill:black;fill-opacity:1;"/>
<path d="M1021.76 479.272H0.242676V519.039H1021.76V479.272Z" fill="black" style="fill:black;fill-opacity:1;"/>
<path d="M1021.76 558.806H0.242676V599.816H1021.76V558.806Z" fill="black" style="fill:black;fill-opacity:1;"/>
<path d="M1021.76 639.583H0.242676V679.35H1021.76V639.583Z" fill="black" style="fill:black;fill-opacity:1;"/>
<path d="M1021.76 719.117H0.242676V758.884H1021.76V719.117Z" fill="black" style="fill:black;fill-opacity:1;"/>
<path d="M1021.76 798.651H0.242676V838.418H1021.76V798.651Z" fill="black" style="fill:black;fill-opacity:1;"/>
</svg>
